<svg xmlns="http://www.w3.org/2000/svg" viewBox="0 0 52.9 52.9"><path d="M26.9 23.5c-.4.5-6.5-2.1-11.9-3-3-.3-6-.8-8-2.3-3.2-2.2 3.5-2.3 7-2.1 3 .1 5.7 1.3 8.2 2.5 2.3 1.1 4 2.3 4.8 3.9.1.3.1.7-.1 1z" fill="#4e2d00" fill-opacity=".4" stroke="#4e2d00" stroke-width=".2" stroke-opacity=".7"/><path d="M26.9 23.5c-1.3-1-3.8-2.1-6.6-3.2l-6-.5-3.3-2c1.4.5 2.5 1.1 4.4 1.5.5-.2 1-.3 1.4-.2l3.5 1.2c2.1.5 4.3 1.4 6.6 2.5a56.9 56.9 0 0 1-9.3-4.9c-.3.1-.5.2-.6.4-1.3-.4-2.5-.9-3.8-1l-2.2.5c-.8-.4-1.6-1.2-2.2-1.6.6.5 1.4 1.3 2.2 1.6l1.2 1.5c-1.4-.3-4.5-1.5-5-1 .5-.5 3.5.7 5 1l2 .5 2 .2c-.2-.4-.5-.6-.8-.7.4-.1 1-.3 1.4-.2-.2-.2 0-.5.2-.8" fill="none" stroke="#4e2d00" stroke-width=".2" stroke-opacity=".4"/><path d="M17.2 28.5c-2 .5-2.9 1.7-3.9 3-1.1-.3-3.2 0-3.2 0a9 9 0 0 1 3.5.8c4-.5 4.5-1.5 5.6-2.5 2.7-4.9.3-8.1-2-1.3zM36.5 32c-.4-.2-.9 0-2.3-.2-.6-.9-.6-1.3-.6-2-.5-.6-1.7-3.2-.5-3.1.7.2 1.7.8 1.6 2.2.1.4 0 1.5-.1 2.4.9 0 1.7-.1 2 .7zM29.2 29c.5.9 1.5.9 2.3 1-.7 1.3-.1 2.7.8 4 .3.3 0 1.4-.3 2.6a8 8 0 0 0 1.5-2.7c0-2-.6-3.4-1.3-4.9-1.4-.7-3 0-3 0z" fill="#372816"/><path d="M24.7 20.9c-1.5-2-4.4-2.4-6.1-1.9-5 1.4-10 3.8-10.9 7.5-.7 2.6-.7 3.8 1 4.1 5.6 1.3 7-2 10.6-2.3 2-.2 4.8.6 5.6-.3 1.4-1.7 1.2-4-.2-7.1z" fill="#d8b93c"/><path d="M24.5 18.7c2.8-2.7 8.5-1.8 10.2 2 1 2.3-.6 6.4-2.7 7.8a6 6 0 0 1-6.5.4c-2-1.1-2.5-8.6-1-10.2z" fill="#b59418"/><path d="M34.8 22c1.7-1.4 4-1.6 4.6 0 .7 1.6.6 4.7-.7 7.6-.5 1.4-1.4 2.1-2.3 1.8-1.5-.5-2.6-2-3.4-3.6-1.2-2.4.8-5 1.8-5.8z" fill="#533e31"/><path d="M16.7 25.8c-.9-.5-4.4 2.6-5.3 5.6-2 .4-2.9 1.7-3.9 2.9-1.1-.2-3.2 0-3.2 0a9 9 0 0 1 3.4.9c4.2-.5 4.6-1.6 5.7-2.5 1.9-1.6 4.4-6.4 3.3-6.9zM24.4 29.1c-.4 2.2.7 4 1.9 5.9-.8 1.2-.9 3 .5 4.8-.7.6-1.3 1.2-2.4 1.5.9 0 1.9.4 2.5-1 1-1.2 1.2-3.6.3-5.5.7-2-.7-3.9-1.6-5.3.8-.6 1-1 .7-1.3-.6-.1-1.2 0-1.9.9z" fill="#372816"/><path d="M26.8 23.5c-.2.7-7.4-1-13.3-.6-3.3.2-6.5.4-9.1-.8-4-1.9 3-3.6 6.6-4.2 3.2-.5 6.4.2 9.4 1 2.8.8 5 1.8 6.2 3.4.3.4.4.8.2 1.2z" fill="#4e2d00" fill-opacity=".4" stroke="#4e2d00" stroke-width=".3" stroke-opacity=".7"/><path d="M26.8 23.5c-1.6-.8-4.6-1.6-7.8-2.1l-6.5.8-4-1.5c1.6.2 3 .7 5 .6.5-.3 1-.6 1.4-.5l4 .6c2.4 0 5 .5 7.8 1.3-4.1-1-9.9-2.6-11.3-3.4-.2 0-.4.2-.5.5-1.5-.2-2.9-.5-4.3-.3-.5.4-1.3.8-2.2 1.2-.8-.3-2-1-2.8-1.5.8.5 2 1.2 2.8 1.5l1.8 1.4c-1.6 0-5.1-.7-5.6 0 .5-.7 4 0 5.6 0 1 .2 1.8.1 2.3.1l2-.3c-.2-.4-.6-.5-1-.6.5-.2 1-.5 1.4-.5-.2-.2-.1-.6 0-1" fill="none" stroke="#4e2d00" stroke-width=".2" stroke-opacity=".4"/><path d="M39.1 26.1c.8-.9 1.4-1.8 2.5-2.5 2.6.2 8.3.1 8 .9l-7.7-.5c-.6.2-1.2 1.5-2.8 2.1z" fill="#372816"/><path d="M39.1 26.1c1 0 2.6 3 3.9 4.7.2-.4-1.6-3.5-3-4.7-.9-.7-1.1 0-.9 0z" fill="#372816"/></svg>